#!OML:ASF F:\VICON\USERDATA\INSTALL\rory3\rory3.ASF
:FULLY-SPECIFIED
:DEGREES
44
root -0.18738736977984302 17.26972690708892 35.04942271591089 0.38799198994507744 8.782814233648915 -0.23613750191719873
lfemur -19.441018283976828 -4.097785197392065 -26.381500937100757
ltibia 42.049791182327525
lfoot -7.511720303935558 -4.0630496423375835
ltoes -9.398744069232784
rfemur -23.720419083541817 -7.982417432745217 21.041999818386067
rtibia 108.91416706386099
rfoot 14.501072931995298 -8.235570481008489
rtoes 21.7718172415671
lowerback 16.33420912478523 1.000430660830712 -0.9345773277340286
upperback -0.1028172822932727 1.1979108769556497 0.01605857354854523
thorax -9.568864558230677 0.6279408699417458 0.8316123459613297
lowerneck -21.11103835835263 -4.4054552353706224 -1.601727980531374
upperneck 13.50892639732758 -6.1239144359737185 3.639754208764415
head 7.803569906073523 -2.623649232286992 0.860715499370819
lclavicle -1.996165627109124e-15 -3.0066521281655636e-15
lhumerus -49.797035831043424 -15.938710453284932 99.07998445289623
lradius 115.02671378963338
lwrist 34.95584351416055
lhand -24.6056777143824 2.050154683979526
lfingers nan
lthumb 2.008457453470798 32.16411537690029
rclavicle -1.9498324541689452e-15 -2.9769268193234802e-15
rhumerus -47.77330935434392 11.05589927945843 -99.6084696937501
rradius 111.61735743535877
rwrist -10.629870089801118
rhand -16.680736617064223 39.22826781809383
rfingers nan
rthumb 10.162934953430478 10.02517604882854
45
root -0.15850398241166636 17.140513978149134 37.58037264882405 0.6137769726834907 8.241293586227988 2.1161812365574066
lfemur -14.691477890136966 -4.583712237181806 -29.10667609177855
ltibia 43.03985444256311
lfoot -7.249562755304845 -3.0120379557105013
ltoes -11.440802074491247
rfemur -30.37849469455464 -8.718931111529452 18.138404563636087
rtibia 113.14787459575527
rfoot 12.106066848726162 -3.7523476715957322
rtoes 16.727508804913647
lowerback 16.850065673286032 0.8319527776075043 -3.162912911586165
upperback 0.16290899214115684 0.5054346229187521 -0.7569041919882251
thorax -9.648597490144091 0.3500238753958978 1.6571703561199946
lowerneck -21.515169092606214 -4.071270051671344 -1.5972698864506818
upperneck 13.431964735048302 -5.618727125533265 3.5801455502596258
head 7.811895836657514 -2.382651709846425 0.8765637673809168
lclavicle -2.0016696729413634e-15 -3.0068627148031287e-15
lhumerus -45.068826398253734 -17.244628644194314 98.75146524082096
lradius 115.64634395688964
lwrist 34.20361761827462
lhand -24.537872772445134 2.0596641503928015
lfingers nan
lthumb 2.107869046424188 32.24457941710225
rclavicle -1.9634024232830193e-15 -2.9778922678964645e-15
rhumerus -49.50650845416765 10.089161699534097 -100.09162483450567
rradius 110.9739756186828
rwrist -10.491942536309846
rhand -16.742571367870127 39.41938188106749
rfingers nan
rthumb 10.073317405412478 10.177299714889006
46
root -0.07407921999116249 17.11048602146926 38.80387786303358 0.7099324950652304 7.2019798402952215 3.7113617034895707
lfemur -8.854339742515856 -4.916067299479601 -30.851906857071633
ltibia 41.73168879786793
lfoot -6.040521942308283 -3.3310564009102563
ltoes -15.026911837712884
rfemur -35.97972873158521 -8.614466629840205 16.798345538405624
rtibia 112.71278076071556
rfoot 9.290623491540662 -1.302899304919955
rtoes 10.588377321999864
lowerback 16.960987186321212 0.5640445385220099 -4.722176166831988
upperback 0.281384866056519 -0.06048676843279366 -1.0182474707181284
thorax -9.60469288281092 0.13469788365474056 2.365963059501972
lowerneck -21.777615478581094 -3.678578088069726 -1.6636914482791858
upperneck 13.57955255926541 -5.0228810613591905 3.4698009260988405
head 7.872977835044357 -2.099988799241613 0.8871320188543919
lclavicle -2.007634583538353e-15 -3.007040128922265e-15
lhumerus -40.63549439866459 -18.474039803374467 98.33019520057911
lradius 116.51223011348681
lwrist 33.4774941091689
lhand -24.591849101538493 1.9693667739847234
lfingers nan
lthumb 2.0915314792605844 32.22322414625679
rclavicle -1.983159685677459e-15 -2.982248444296137e-15
rhumerus -51.53349839732704 9.284908666613592 -100.3683336335145
rradius 110.842742764149
rwrist -10.573661177415778
rhand -16.71410720979525 39.54816318792042
rfingers nan
rthumb 10.033649548801185 10.220448719100293
47
root 0.006296657932961025 17.19183258698134 39.691787755458456 1.3886603083919398 6.1875247723057125 2.5600644245472672
lfemur -3.3358912665136025 -4.940765967638392 -29.860140373408708
ltibia 39.295178740899985
lfoot -3.0465841106293823 -4.880847978880922
ltoes -17.861291246869374
rfemur -41.97021094724906 -8.067207547531014 18.845467289003256
rtibia 108.79223631919288
rfoot 7.312185271546479 -0.4218454717478739
rtoes 5.685317611960301
lowerback 16.541581939116636 -0.06805833822571705 -4.129020052861387
upperback 0.0038427047744120646 -0.6570749054728204 -0.3429595232636149
thorax -9.580179148611402 -0.12985604940651851 2.8740375819985515
lowerneck -21.803369120808366 -3.244551500989169 -1.7737314359750147
upperneck 13.910355558213938 -4.354515008191704 3.3043532929330603
head 7.93498521399294 -1.8038724259175936 0.8894468295885427
lclavicle -2.013560732224742e-15 -3.007808851727882e-15
lhumerus -37.022864683702196 -19.4749777998343 97.85947553932984
lradius 117.60610557530481
lwrist 33.21482789017905
lhand -24.65444931339916 1.9652597332417054
lfingers nan
lthumb 2.0111838014967147 32.153778989068684
rclavicle -2.004519281295523e-15 -2.989556785984917e-15
rhumerus -53.63944209291564 8.622779256368888 -100.41023384089625
rradius 111.1520182944968
rwrist -11.349408390556633
rhand -16.635580318056604 39.558027988883325
rfingers nan
rthumb 10.035831558207644 10.161176142952362
